<svg id="_919827" data-name="919827" xmlns="http://www.w3.org/2000/svg" width="295" height="295" viewBox="0 0 295 295">
  <path id="Path_33" data-name="Path 33" d="M295,147.5A147.5,147.5,0,1,1,147.5,0,147.256,147.256,0,0,1,295,147.5Z" transform="translate(0 0)" fill="#dcdcdc"/>
  <path id="Path_34" data-name="Path 34" d="M284.8,119.474,267.96,314.752a147.519,147.519,0,0,1-179.974.517l-16.881-195.8Z" transform="translate(-30.136 -50.636)" fill="#e64c18"/>
  <path id="Path_35" data-name="Path 35" d="M256.546,151.249V354.59l70.243-19.83,15.669-183.511Z" transform="translate(-108.731 -64.104)" fill="#f36518"/>
  <path id="Path_36" data-name="Path 36" d="M140.9,195.528l6.888,81.565h91.555l-3,33.693-28.816,7.8-30.012-8.408-.754-21.007H148.813l3.5,41.415L207.535,346.2l55.222-15.607,6.844-81.036H173.183l-2.393-26.411h0l101.09-.529,2.286-27.084Z" transform="translate(-59.719 -82.87)" fill="#fff"/>
  <path id="Path_37" data-name="Path 37" d="M132.148,16.8V30.809H118.759V16.8H106.3V56.965h12.456V43.887h13.389V56.965H144.6V16.8Z" transform="translate(-45.054 -7.119)"/>
  <path id="Path_38" data-name="Path 38" d="M221.347,16.8h-38.3V30.809H195.5V57.277h13.39V30.809h12.456Z" transform="translate(-77.58 -7.119)"/>
  <path id="Path_39" data-name="Path 39" d="M363.434,44.739v-27.4h-13.39v40.17h32.7V44.739Z" transform="translate(-148.359 -7.348)"/>
  <path id="Path_40" data-name="Path 40" d="M291.322,17.337l-9.341,14.324-9.342-14.324h-13.39v40.17h13.39V37.577L281.981,51.9l9.341-14.325v19.93h13.39V17.337Z" transform="translate(-109.877 -7.348)"/>
</svg>
