<?xml version="1.0" encoding="UTF-8" standalone="no" ?>
<!DOCTYPE svg PUBLIC "-//W3C//DTD SVG 1.1//EN" "http://www.w3.org/Graphics/SVG/1.1/DTD/svg11.dtd">
<svg xmlns="http://www.w3.org/2000/svg" xmlns:xlink="http://www.w3.org/1999/xlink" version="1.1" width="1080" height="1080" viewBox="0 0 1080 1080" xml:space="preserve">
<desc>Created with Fabric.js 4.2.0</desc>
<defs>
</defs>
<rect x="0" y="0" width="100%" height="100%" fill="transparent"></rect>
<g transform="matrix(1 0 0 1 540 540)" id="38fbb126-2d70-48cd-b509-c2f93762ef4a"  >
<rect style="stroke: none; stroke-width: 1; stroke-dasharray: none; stroke-linecap: butt; stroke-dashoffset: 0; stroke-linejoin: miter; stroke-miterlimit: 4; fill: rgb(255,255,255); fill-opacity: 0; fill-rule: nonzero; opacity: 1;" vector-effect="non-scaling-stroke"  x="-540" y="-540" rx="0" ry="0" width="1080" height="1080" />
</g>
<g transform="matrix(1 0 0 1 540 540)" id="c958ffb2-0981-4424-8a99-40eda2ceea47"  >
</g>
<g transform="matrix(3.52 0 0 3.52 556.03 540)"  >
<g style="" vector-effect="non-scaling-stroke"   >
		<g transform="matrix(0.69 0 0 0.69 -9.51 -10.86)"  >
<path style="stroke: none; stroke-width: 1; stroke-dasharray: none; stroke-linecap: butt; stroke-dashoffset: 0; stroke-linejoin: miter; stroke-miterlimit: 4; fill: rgb(255,255,255); fill-rule: nonzero; opacity: 1;" vector-effect="non-scaling-stroke"  transform=" translate(-196.09, -194.13)" d="M 282.895 352.367 C 280.719 351.043 278.823 349.26800000000003 277.316 347.117 C 276.61999999999995 346.125 276.032 345.076 275.54499999999996 343.992 L 28.282 343.992 L 28.282 100.276 L 363.906 100.276 L 363.906 259.414 C 371.071 260.061 377.083 264.767 379.607 271.211 C 381.84200000000004 269.986 384.333 269.229 386.951 268.998 C 388.72200000000004 268.844 390.481 268.954 392.187 269.291 L 392.187 39.561 C 392.187 26.564999999999998 381.616 15.992 368.62100000000004 15.992 L 23.568 15.992 C 10.573 15.992 0 26.565 0 39.561 L 0 348.707 C 0 361.703 10.573 372.275 23.568 372.275 L 280.74699999999996 372.275 C 278.73999999999995 368.21099999999996 278.26399999999995 363.623 279.44499999999994 359.209 C 280.126 356.67 281.304 354.354 282.895 352.367 z M 338.025 55.569 C 338.025 50.763000000000005 341.921 46.866 346.727 46.866 L 355.429 46.866 C 360.236 46.866 364.131 50.762 364.131 55.569 L 364.131 65.432 C 364.131 70.238 360.23499999999996 74.134 355.429 74.134 L 346.727 74.134 C 341.91999999999996 74.134 338.025 70.238 338.025 65.432 L 338.025 55.569 z M 297.56 55.569 C 297.56 50.763000000000005 301.456 46.866 306.262 46.866 L 314.965 46.866 C 319.772 46.866 323.667 50.762 323.667 55.569 L 323.667 65.432 C 323.667 70.238 319.77099999999996 74.134 314.965 74.134 L 306.262 74.134 C 301.456 74.134 297.56 70.238 297.56 65.432 L 297.56 55.569 z M 257.094 55.569 C 257.094 50.763000000000005 260.991 46.866 265.796 46.866 L 274.498 46.866 C 279.305 46.866 283.20099999999996 50.762 283.20099999999996 55.569 L 283.20099999999996 65.432 C 283.20099999999996 70.238 279.30499999999995 74.134 274.498 74.134 L 265.796 74.134 C 260.991 74.134 257.094 70.238 257.094 65.432 L 257.094 55.569 z" stroke-linecap="round" />
</g>
		<g transform="matrix(0.69 0 0 0.69 26.44 38.75)"  >
<path style="stroke: none; stroke-width: 1; stroke-dasharray: none; stroke-linecap: butt; stroke-dashoffset: 0; stroke-linejoin: miter; stroke-miterlimit: 4; fill: rgb(255,255,255); fill-rule: nonzero; opacity: 1;" vector-effect="non-scaling-stroke"  transform=" translate(-248.51, -266.46)" d="M 419.875 335.77 L 417.26 320.94 C 416.907 318.943 415.004 317.609 413.005 317.961 L 399.817 320.285 C 398.234 316.57000000000005 396.212 313.09000000000003 393.812 309.90500000000003 L 402.426 299.63700000000006 C 403.05199999999996 298.89300000000003 403.35699999999997 297.92800000000005 403.27299999999997 296.95700000000005 C 403.18699999999995 295.98600000000005 402.719 295.09000000000003 401.97299999999996 294.463 L 390.43899999999996 284.783 C 389.693 284.15700000000004 388.72599999999994 283.853 387.756 283.938 C 386.78499999999997 284.02299999999997 385.88899999999995 284.49 385.263 285.236 L 376.657 295.496 C 373.12399999999997 293.69599999999997 369.34499999999997 292.308 365.38599999999997 291.392 L 365.38599999999997 278 C 365.38599999999997 275.972 363.741 274.326 361.71299999999997 274.326 L 346.65299999999996 274.326 C 344.626 274.326 342.97999999999996 275.97200000000004 342.97999999999996 278 L 342.97999999999996 291.392 C 339.01899999999995 292.307 335.24399999999997 293.69599999999997 331.70899999999995 295.496 L 323.10099999999994 285.23699999999997 C 321.79699999999997 283.683 319.48099999999994 283.481 317.92599999999993 284.784 L 306.3909999999999 294.46299999999997 C 305.6449999999999 295.09 305.1779999999999 295.986 305.0919999999999 296.957 C 305.0079999999999 297.928 305.31199999999995 298.894 305.93799999999993 299.64 L 314.55299999999994 309.906 C 312.1569999999999 313.09000000000003 310.1309999999999 316.572 308.54799999999994 320.286 L 295.35999999999996 317.961 C 293.36599999999993 317.61 291.45899999999995 318.94300000000004 291.10499999999996 320.94 L 288.491 335.77 C 288.322 336.729 288.541 337.715 289.098 338.514 C 289.659 339.313 290.50800000000004 339.856 291.468 340.02500000000003 L 304.666 342.35100000000006 C 304.881 346.44000000000005 305.593 350.3960000000001 306.739 354.16300000000007 L 295.13899999999995 360.85800000000006 C 294.29499999999996 361.3430000000001 293.67999999999995 362.14700000000005 293.42699999999996 363.08700000000005 C 293.17499999999995 364.028 293.30799999999994 365.03000000000003 293.794 365.874 L 301.323 378.915 C 301.808 379.759 302.61199999999997 380.374 303.55199999999996 380.62600000000003 C 303.86499999999995 380.71000000000004 304.18399999999997 380.75100000000003 304.503 380.75100000000003 C 305.142 380.75100000000003 305.775 380.58500000000004 306.339 380.259 L 317.948 373.55600000000004 C 320.678 376.48100000000005 323.76 379.07300000000004 327.128 381.26500000000004 L 322.544 393.85800000000006 C 322.212 394.77400000000006 322.255 395.78400000000005 322.667 396.6670000000001 C 323.07899999999995 397.5500000000001 323.82399999999996 398.23300000000006 324.739 398.5650000000001 L 338.887 403.7140000000001 C 339.293 403.86200000000014 339.719 403.9380000000001 340.144 403.9380000000001 C 340.674 403.9380000000001 341.207 403.8230000000001 341.698 403.5930000000001 C 342.58099999999996 403.1820000000001 343.262 402.4360000000001 343.59499999999997 401.5200000000001 L 348.178 388.9270000000001 C 350.143 389.1650000000001 352.143 389.28800000000007 354.172 389.28800000000007 C 356.2010000000001 389.28800000000007 358.201 389.16300000000007 360.16600000000005 388.9270000000001 L 364.75000000000006 401.5200000000001 C 365.08200000000005 402.4360000000001 365.7660000000001 403.1820000000001 366.64700000000005 403.5930000000001 C 367.13700000000006 403.82200000000006 367.66800000000006 403.9380000000001 368.201 403.9380000000001 C 368.625 403.9380000000001 369.05100000000004 403.8640000000001 369.457 403.7140000000001 L 383.60699999999997 398.5650000000001 C 384.52 398.2330000000001 385.26599999999996 397.5480000000001 385.67699999999996 396.6670000000001 C 386.08899999999994 395.7840000000001 386.133 394.7740000000001 385.79999999999995 393.85800000000006 L 381.21599999999995 381.26700000000005 C 384.58099999999996 379.07500000000005 387.66299999999995 376.48100000000005 390.39599999999996 373.55800000000005 L 402.00499999999994 380.261 C 402.5679999999999 380.58500000000004 403.20199999999994 380.75300000000004 403.84099999999995 380.75300000000004 C 404.15899999999993 380.75300000000004 404.48099999999994 380.71000000000004 404.792 380.62800000000004 C 405.73299999999995 380.37600000000003 406.53499999999997 379.759 407.02099999999996 378.91700000000003 L 414.54999999999995 365.874 C 415.03599999999994 365.03200000000004 415.169 364.028 414.917 363.08700000000005 C 414.664 362.14900000000006 414.049 361.345 413.205 360.85800000000006 L 401.60699999999997 354.1650000000001 C 402.753 350.3970000000001 403.46299999999997 346.4410000000001 403.678 342.35300000000007 L 416.876 340.02600000000007 C 417.83599999999996 339.8570000000001 418.688 339.3140000000001 419.246 338.51500000000004 C 419.825 337.715 420.044 336.729 419.875 335.77 z M 354.184 359.336 C 343.02900000000005 359.336 333.98400000000004 350.291 333.98400000000004 339.135 C 333.98400000000004 327.979 343.03000000000003 318.935 354.184 318.935 C 365.34000000000003 318.935 374.38500000000005 327.979 374.38500000000005 339.135 C 374.38500000000005 350.291 365.34 359.336 354.184 359.336 z M 164.695 235.373 C 164.695 230.62099999999998 161.91 226.256 157.599 224.254 L 118.14399999999999 205.922 L 157.6 187.588 C 161.91 185.584 164.695 181.22 164.695 176.47 L 164.695 176.151 C 164.695 171.941 162.576 168.07600000000002 159.03 165.817 C 157.068 164.56400000000002 154.78300000000002 163.901 152.424 163.901 C 150.64600000000002 163.901 148.86100000000002 164.292 147.264 165.03400000000002 L 84.186 194.36700000000002 C 79.87700000000001 196.371 77.09400000000001 200.735 77.09400000000001 205.484 L 77.09400000000001 206.36100000000002 C 77.09400000000001 211.104 79.876 215.46500000000003 84.18700000000001 217.479 L 147.27100000000002 246.815 C 148.90200000000002 247.57 150.639 247.953 152.43300000000002 247.953 C 154.77100000000002 247.953 157.04900000000004 247.28900000000002 159.03000000000003 246.029 C 162.57800000000003 243.761 164.69600000000003 239.899 164.69600000000003 235.694 L 164.695 235.373 L 164.695 235.373 z M 226.932 134.012 C 224.631 130.862 220.92999999999998 128.982 217.03099999999998 128.982 L 216.71699999999998 128.982 C 211.36299999999997 128.982 206.66899999999998 132.407 205.03799999999998 137.498 L 163.478 266.27 C 162.29500000000002 269.988 162.961 274.08299999999997 165.25900000000001 277.23199999999997 C 167.56 280.38 171.26100000000002 282.26099999999997 175.16000000000003 282.26099999999997 L 175.47500000000002 282.26099999999997 C 180.82700000000003 282.26099999999997 185.51800000000003 278.835 187.14700000000002 273.74499999999995 L 228.70200000000003 144.98299999999995 C 229.896 141.268 229.234 137.167 226.932 134.012 z M 308.001 194.366 L 244.92199999999997 165.03300000000002 C 243.32999999999996 164.293 241.54799999999997 163.90200000000002 239.76999999999998 163.90200000000002 C 237.41199999999998 163.90200000000002 235.12599999999998 164.56300000000002 233.165 165.81400000000002 C 229.613 168.07700000000003 227.494 171.94100000000003 227.494 176.151 L 227.494 176.47 C 227.494 181.216 230.277 185.581 234.591 187.593 L 274.045 205.923 L 234.59000000000003 224.254 C 230.27900000000002 226.256 227.49400000000003 230.62099999999998 227.49400000000003 235.373 L 227.49400000000003 235.694 C 227.49400000000003 239.899 229.61300000000003 243.76 233.16300000000004 246.03 C 235.13700000000003 247.288 237.41700000000003 247.953 239.75800000000004 247.953 C 241.55000000000004 247.953 243.28500000000003 247.57 244.92700000000005 246.812 L 308.00900000000007 217.476 C 312.3160000000001 215.467 315.0970000000001 211.105 315.0970000000001 206.362 L 315.0970000000001 205.48499999999999 C 315.094 200.735 312.311 196.371 308.001 194.366 z" stroke-linecap="round" />
</g>
</g>
</g>
</svg>